<?xml version="1.0" standalone="no"?>
<!DOCTYPE svg PUBLIC "-//W3C//DTD SVG 20010904//EN"
 "http://www.w3.org/TR/2001/REC-SVG-20010904/DTD/svg10.dtd">
<svg version="1.0" xmlns="http://www.w3.org/2000/svg"
 width="400.000000pt" height="400.000000pt" viewBox="0 0 400.000000 400.000000"
 preserveAspectRatio="xMidYMid meet">
<metadata>
Created by potrace 1.11, written by Peter Selinger 2001-2013
</metadata>
<g transform="translate(0.000000,400.000000) scale(0.100000,-0.100000)"
fill="#000000" stroke="none">
<path d="M503 3579 c-141 -27 -270 -137 -328 -279 -23 -58 -29 -190 -11 -251
37 -123 120 -224 223 -274 32 -16 66 -32 76 -37 31 -15 161 -20 222 -9 116 21
228 95 292 191 46 70 65 128 69 215 13 287 -250 502 -543 444z"/>
<path d="M1800 3571 c-84 -27 -130 -54 -189 -111 -167 -164 -172 -431 -11
-598 84 -87 176 -130 301 -139 136 -9 258 37 354 134 89 90 126 190 121 325
-5 166 -125 321 -296 384 -67 24 -212 27 -280 5z"/>
<path d="M3410 3579 c-126 -25 -249 -124 -307 -245 -110 -230 7 -498 257 -590
54 -19 188 -27 250 -13 132 28 248 122 309 249 34 71 36 81 36 175 0 95 -2
104 -37 178 -91 190 -295 289 -508 246z"/>
<path d="M810 2554 c-92 -33 -158 -93 -208 -188 -24 -46 -27 -61 -27 -156 0
-101 1 -108 34 -168 39 -71 98 -128 169 -163 69 -34 225 -34 294 0 75 37 134
95 170 169 30 61 33 74 33 162 0 88 -3 101 -33 162 -36 75 -95 133 -170 169
-63 30 -197 37 -262 13z"/>
<path d="M2150 2554 c-92 -33 -158 -94 -208 -188 -24 -45 -27 -62 -27 -151 0
-93 2 -105 33 -167 36 -74 95 -132 170 -169 69 -34 225 -34 294 0 75 37 134
95 170 169 30 61 33 74 33 162 0 88 -3 101 -33 162 -36 75 -95 133 -170 169
-63 30 -197 37 -262 13z"/>
<path d="M1123 1627 c-24 -5 -43 -14 -43 -18 0 -5 -7 -9 -15 -9 -25 0 -103
-84 -126 -135 -65 -148 -5 -319 137 -391 50 -25 68 -29 138 -28 89 0 135 18
200 75 91 79 119 236 64 350 -65 132 -204 193 -355 156z"/>
<path d="M2493 1631 c-50 -13 -119 -58 -151 -98 -55 -70 -66 -102 -67 -188 0
-68 4 -89 27 -136 54 -108 145 -164 268 -164 123 1 212 55 266 162 24 47 29
69 29 132 0 122 -57 216 -165 271 -46 24 -154 35 -207 21z"/>
<path d="M1381 764 c-154 -77 -147 -282 12 -354 94 -43 221 -9 275 73 23 34
27 52 27 107 0 87 -30 136 -106 174 -71 35 -137 35 -208 0z"/>
<path d="M2731 764 c-120 -60 -149 -214 -58 -306 72 -71 174 -88 266 -42 76
38 106 87 106 174 0 87 -30 136 -106 174 -71 35 -137 35 -208 0z"/>
</g>
</svg>
